<?xml version="1.0" encoding="UTF-8"?>
<svg xmlns="http://www.w3.org/2000/svg" xmlns:xlink="http://www.w3.org/1999/xlink" width="32px" height="32px" viewBox="0 0 32 32" version="1.1">
<defs>
<linearGradient id="linear0" gradientUnits="userSpaceOnUse" x1="73.1668" y1="856.4969" x2="856.5007" y2="73.163" gradientTransform="matrix(0.0266667,0,0,0.0266667,0,0)">
<stop offset="0" style="stop-color:rgb(16.078431%,39.215686%,66.666667%);stop-opacity:1;"/>
<stop offset="1" style="stop-color:rgb(14.901961%,58.431373%,81.176471%);stop-opacity:1;"/>
</linearGradient>
<linearGradient id="linear1" gradientUnits="userSpaceOnUse" x1="254.2306" y1="1037.5609" x2="1037.5646" y2="254.2269" gradientTransform="matrix(0.0266667,0,0,0.0266667,0,0)">
<stop offset="0" style="stop-color:rgb(16.078431%,39.215686%,66.666667%);stop-opacity:1;"/>
<stop offset="1" style="stop-color:rgb(14.901961%,58.431373%,81.176471%);stop-opacity:1;"/>
</linearGradient>
<linearGradient id="linear2" gradientUnits="userSpaceOnUse" x1="50.0004" y1="401.5764" x2="1149.9998" y2="401.5764" gradientTransform="matrix(0.0266667,0,0,0.0266667,0,0)">
<stop offset="0" style="stop-color:rgb(16.078431%,39.215686%,66.666667%);stop-opacity:1;"/>
<stop offset="1" style="stop-color:rgb(14.901961%,58.431373%,81.176471%);stop-opacity:1;"/>
</linearGradient>
<linearGradient id="linear3" gradientUnits="userSpaceOnUse" x1="50.0006" y1="401.5781" x2="1149.9999" y2="401.5781" gradientTransform="matrix(0.0266667,0,0,0.0266667,0,0)">
<stop offset="0" style="stop-color:rgb(16.078431%,39.215686%,66.666667%);stop-opacity:1;"/>
<stop offset="1" style="stop-color:rgb(14.901961%,58.431373%,81.176471%);stop-opacity:1;"/>
</linearGradient>
<linearGradient id="linear4" gradientUnits="userSpaceOnUse" x1="377.6747" y1="1161.0049" x2="1161.0087" y2="377.6709" gradientTransform="matrix(0.0266667,0,0,0.0266667,0,0)">
<stop offset="0" style="stop-color:rgb(16.078431%,39.215686%,66.666667%);stop-opacity:1;"/>
<stop offset="1" style="stop-color:rgb(14.901961%,58.431373%,81.176471%);stop-opacity:1;"/>
</linearGradient>
<linearGradient id="linear5" gradientUnits="userSpaceOnUse" x1="50.0006" y1="628.4748" x2="1149.9999" y2="628.4748" gradientTransform="matrix(0.0266667,0,0,0.0266667,0,0)">
<stop offset="0" style="stop-color:rgb(16.078431%,39.215686%,66.666667%);stop-opacity:1;"/>
<stop offset="1" style="stop-color:rgb(14.901961%,58.431373%,81.176471%);stop-opacity:1;"/>
</linearGradient>
<linearGradient id="linear6" gradientUnits="userSpaceOnUse" x1="99.1914" y1="882.5217" x2="882.5254" y2="99.1877" gradientTransform="matrix(0.0266667,0,0,0.0266667,0,0)">
<stop offset="0" style="stop-color:rgb(16.078431%,39.215686%,66.666667%);stop-opacity:1;"/>
<stop offset="1" style="stop-color:rgb(14.901961%,58.431373%,81.176471%);stop-opacity:1;"/>
</linearGradient>
<linearGradient id="linear7" gradientUnits="userSpaceOnUse" x1="50.0006" y1="278.875" x2="1149.9999" y2="278.875" gradientTransform="matrix(0.0266667,0,0,0.0266667,0,0)">
<stop offset="0" style="stop-color:rgb(16.078431%,39.215686%,66.666667%);stop-opacity:1;"/>
<stop offset="1" style="stop-color:rgb(14.901961%,58.431373%,81.176471%);stop-opacity:1;"/>
</linearGradient>
<linearGradient id="linear8" gradientUnits="userSpaceOnUse" x1="245.5915" y1="1028.9218" x2="1028.9255" y2="245.5878" gradientTransform="matrix(0.0266667,0,0,0.0266667,0,0)">
<stop offset="0" style="stop-color:rgb(16.078431%,39.215686%,66.666667%);stop-opacity:1;"/>
<stop offset="1" style="stop-color:rgb(14.901961%,58.431373%,81.176471%);stop-opacity:1;"/>
</linearGradient>
<linearGradient id="linear9" gradientUnits="userSpaceOnUse" x1="50.0006" y1="744.3307" x2="1149.9999" y2="744.3307" gradientTransform="matrix(0.0266667,0,0,0.0266667,0,0)">
<stop offset="0" style="stop-color:rgb(16.078431%,39.215686%,66.666667%);stop-opacity:1;"/>
<stop offset="1" style="stop-color:rgb(14.901961%,58.431373%,81.176471%);stop-opacity:1;"/>
</linearGradient>
<linearGradient id="linear10" gradientUnits="userSpaceOnUse" x1="50.0006" y1="740.1251" x2="1149.9999" y2="740.1251" gradientTransform="matrix(0.0266667,0,0,0.0266667,0,0)">
<stop offset="0" style="stop-color:rgb(16.078431%,39.215686%,66.666667%);stop-opacity:1;"/>
<stop offset="1" style="stop-color:rgb(14.901961%,58.431373%,81.176471%);stop-opacity:1;"/>
</linearGradient>
<linearGradient id="linear11" gradientUnits="userSpaceOnUse" x1="50.0006" y1="629.4182" x2="1149.9999" y2="629.4182" gradientTransform="matrix(0.0266667,0,0,0.0266667,0,0)">
<stop offset="0" style="stop-color:rgb(16.078431%,39.215686%,66.666667%);stop-opacity:1;"/>
<stop offset="1" style="stop-color:rgb(14.901961%,58.431373%,81.176471%);stop-opacity:1;"/>
</linearGradient>
<linearGradient id="linear12" gradientUnits="userSpaceOnUse" x1="50.0006" y1="526.4899" x2="1149.9999" y2="526.4899" gradientTransform="matrix(0.0266667,0,0,0.0266667,0,0)">
<stop offset="0" style="stop-color:rgb(16.078431%,39.215686%,66.666667%);stop-opacity:1;"/>
<stop offset="1" style="stop-color:rgb(14.901961%,58.431373%,81.176471%);stop-opacity:1;"/>
</linearGradient>
<linearGradient id="linear13" gradientUnits="userSpaceOnUse" x1="50.0012" y1="421.4455" x2="1149.9988" y2="421.4455" gradientTransform="matrix(0.0266667,0,0,0.0266667,0,0)">
<stop offset="0" style="stop-color:rgb(16.078431%,39.215686%,66.666667%);stop-opacity:1;"/>
<stop offset="1" style="stop-color:rgb(14.901961%,58.431373%,81.176471%);stop-opacity:1;"/>
</linearGradient>
<linearGradient id="linear14" gradientUnits="userSpaceOnUse" x1="493.9184" y1="1277.2485" x2="1277.2523" y2="493.9146" gradientTransform="matrix(0.0266667,0,0,0.0266667,0,0)">
<stop offset="0" style="stop-color:rgb(16.078431%,39.215686%,66.666667%);stop-opacity:1;"/>
<stop offset="1" style="stop-color:rgb(14.901961%,58.431373%,81.176471%);stop-opacity:1;"/>
</linearGradient>
<linearGradient id="linear15" gradientUnits="userSpaceOnUse" x1="810.4933" y1="837.1228" x2="1053.5784" y2="837.1228" gradientTransform="matrix(0.0266667,0,0,0.0266667,0,0)">
<stop offset="0" style="stop-color:rgb(14.901961%,58.431373%,81.176471%);stop-opacity:1;"/>
<stop offset="0.8467" style="stop-color:rgb(16.078431%,43.921569%,69.803922%);stop-opacity:1;"/>
<stop offset="1" style="stop-color:rgb(16.078431%,39.215686%,66.666667%);stop-opacity:1;"/>
</linearGradient>
<linearGradient id="linear16" gradientUnits="userSpaceOnUse" x1="810.4933" y1="811.7101" x2="1053.5784" y2="811.7101" gradientTransform="matrix(0.0266667,0,0,0.0266667,0,0)">
<stop offset="0" style="stop-color:rgb(14.901961%,58.431373%,81.176471%);stop-opacity:1;"/>
<stop offset="0.8467" style="stop-color:rgb(16.078431%,43.921569%,69.803922%);stop-opacity:1;"/>
<stop offset="1" style="stop-color:rgb(16.078431%,39.215686%,66.666667%);stop-opacity:1;"/>
</linearGradient>
<linearGradient id="linear17" gradientUnits="userSpaceOnUse" x1="810.4933" y1="729.449" x2="1053.5784" y2="729.449" gradientTransform="matrix(0.0266667,0,0,0.0266667,0,0)">
<stop offset="0" style="stop-color:rgb(14.901961%,58.431373%,81.176471%);stop-opacity:1;"/>
<stop offset="0.8467" style="stop-color:rgb(16.078431%,43.921569%,69.803922%);stop-opacity:1;"/>
<stop offset="1" style="stop-color:rgb(16.078431%,39.215686%,66.666667%);stop-opacity:1;"/>
</linearGradient>
<linearGradient id="linear18" gradientUnits="userSpaceOnUse" x1="428.4434" y1="1211.7736" x2="1211.7773" y2="428.4396" gradientTransform="matrix(0.0266667,0,0,0.0266667,0,0)">
<stop offset="0" style="stop-color:rgb(16.078431%,39.215686%,66.666667%);stop-opacity:1;"/>
<stop offset="1" style="stop-color:rgb(14.901961%,58.431373%,81.176471%);stop-opacity:1;"/>
</linearGradient>
<linearGradient id="linear19" gradientUnits="userSpaceOnUse" x1="50.0006" y1="733.3996" x2="1149.9999" y2="733.3996" gradientTransform="matrix(0.0266667,0,0,0.0266667,0,0)">
<stop offset="0" style="stop-color:rgb(16.078431%,39.215686%,66.666667%);stop-opacity:1;"/>
<stop offset="1" style="stop-color:rgb(14.901961%,58.431373%,81.176471%);stop-opacity:1;"/>
</linearGradient>
<linearGradient id="linear20" gradientUnits="userSpaceOnUse" x1="810.4933" y1="733.3996" x2="1053.5784" y2="733.3996" gradientTransform="matrix(0.0266667,0,0,0.0266667,0,0)">
<stop offset="0" style="stop-color:rgb(14.901961%,58.431373%,81.176471%);stop-opacity:1;"/>
<stop offset="0.8467" style="stop-color:rgb(16.078431%,43.921569%,69.803922%);stop-opacity:1;"/>
<stop offset="1" style="stop-color:rgb(16.078431%,39.215686%,66.666667%);stop-opacity:1;"/>
</linearGradient>
<linearGradient id="linear21" gradientUnits="userSpaceOnUse" x1="471.4993" y1="1254.8295" x2="1254.8333" y2="471.4955" gradientTransform="matrix(0.0266667,0,0,0.0266667,0,0)">
<stop offset="0" style="stop-color:rgb(16.078431%,39.215686%,66.666667%);stop-opacity:1;"/>
<stop offset="1" style="stop-color:rgb(14.901961%,58.431373%,81.176471%);stop-opacity:1;"/>
</linearGradient>
<linearGradient id="linear22" gradientUnits="userSpaceOnUse" x1="50.0006" y1="862.2044" x2="1149.9999" y2="862.2044" gradientTransform="matrix(0.0266667,0,0,0.0266667,0,0)">
<stop offset="0" style="stop-color:rgb(16.078431%,39.215686%,66.666667%);stop-opacity:1;"/>
<stop offset="1" style="stop-color:rgb(14.901961%,58.431373%,81.176471%);stop-opacity:1;"/>
</linearGradient>
<linearGradient id="linear23" gradientUnits="userSpaceOnUse" x1="810.4933" y1="862.2044" x2="1053.5784" y2="862.2044" gradientTransform="matrix(0.0266667,0,0,0.0266667,0,0)">
<stop offset="0" style="stop-color:rgb(14.901961%,58.431373%,81.176471%);stop-opacity:1;"/>
<stop offset="0.8467" style="stop-color:rgb(16.078431%,43.921569%,69.803922%);stop-opacity:1;"/>
<stop offset="1" style="stop-color:rgb(16.078431%,39.215686%,66.666667%);stop-opacity:1;"/>
</linearGradient>
<linearGradient id="linear24" gradientUnits="userSpaceOnUse" x1="50.0006" y1="845.9995" x2="1149.9999" y2="845.9995" gradientTransform="matrix(0.0266667,0,0,0.0266667,0,0)">
<stop offset="0" style="stop-color:rgb(16.078431%,39.215686%,66.666667%);stop-opacity:1;"/>
<stop offset="1" style="stop-color:rgb(14.901961%,58.431373%,81.176471%);stop-opacity:1;"/>
</linearGradient>
<linearGradient id="linear25" gradientUnits="userSpaceOnUse" x1="810.4933" y1="845.9995" x2="1053.5784" y2="845.9995" gradientTransform="matrix(0.0266667,0,0,0.0266667,0,0)">
<stop offset="0" style="stop-color:rgb(14.901961%,58.431373%,81.176471%);stop-opacity:1;"/>
<stop offset="0.8467" style="stop-color:rgb(16.078431%,43.921569%,69.803922%);stop-opacity:1;"/>
<stop offset="1" style="stop-color:rgb(16.078431%,39.215686%,66.666667%);stop-opacity:1;"/>
</linearGradient>
<linearGradient id="linear26" gradientUnits="userSpaceOnUse" x1="50.0006" y1="769.2256" x2="1149.9999" y2="769.2256" gradientTransform="matrix(0.0266667,0,0,0.0266667,0,0)">
<stop offset="0" style="stop-color:rgb(16.078431%,39.215686%,66.666667%);stop-opacity:1;"/>
<stop offset="1" style="stop-color:rgb(14.901961%,58.431373%,81.176471%);stop-opacity:1;"/>
</linearGradient>
<linearGradient id="linear27" gradientUnits="userSpaceOnUse" x1="810.4933" y1="769.2256" x2="1053.5784" y2="769.2256" gradientTransform="matrix(0.0266667,0,0,0.0266667,0,0)">
<stop offset="0" style="stop-color:rgb(14.901961%,58.431373%,81.176471%);stop-opacity:1;"/>
<stop offset="0.8467" style="stop-color:rgb(16.078431%,43.921569%,69.803922%);stop-opacity:1;"/>
<stop offset="1" style="stop-color:rgb(16.078431%,39.215686%,66.666667%);stop-opacity:1;"/>
</linearGradient>
<linearGradient id="linear28" gradientUnits="userSpaceOnUse" x1="50.0006" y1="725.6777" x2="1149.9999" y2="725.6777" gradientTransform="matrix(0.0266667,0,0,0.0266667,0,0)">
<stop offset="0" style="stop-color:rgb(16.078431%,39.215686%,66.666667%);stop-opacity:1;"/>
<stop offset="1" style="stop-color:rgb(14.901961%,58.431373%,81.176471%);stop-opacity:1;"/>
</linearGradient>
<linearGradient id="linear29" gradientUnits="userSpaceOnUse" x1="810.4933" y1="725.6777" x2="1053.5784" y2="725.6777" gradientTransform="matrix(0.0266667,0,0,0.0266667,0,0)">
<stop offset="0" style="stop-color:rgb(14.901961%,58.431373%,81.176471%);stop-opacity:1;"/>
<stop offset="0.8467" style="stop-color:rgb(16.078431%,43.921569%,69.803922%);stop-opacity:1;"/>
<stop offset="1" style="stop-color:rgb(16.078431%,39.215686%,66.666667%);stop-opacity:1;"/>
</linearGradient>
<linearGradient id="linear30" gradientUnits="userSpaceOnUse" x1="810.4933" y1="822.3369" x2="1053.5784" y2="822.3369" gradientTransform="matrix(0.0266667,0,0,0.0266667,0,0)">
<stop offset="0" style="stop-color:rgb(14.901961%,58.431373%,81.176471%);stop-opacity:1;"/>
<stop offset="0.8467" style="stop-color:rgb(16.078431%,43.921569%,69.803922%);stop-opacity:1;"/>
<stop offset="1" style="stop-color:rgb(16.078431%,39.215686%,66.666667%);stop-opacity:1;"/>
</linearGradient>
</defs>
<g id="surface1">
<path style=" stroke:none;fill-rule:nonzero;fill:url(#linear0);" d="M 28.292969 10.179688 L 28.292969 7.402344 L 16 1.992188 L 3.707031 7.402344 L 3.707031 10.179688 L 16 4.695312 Z M 28.292969 10.179688 "/>
<path style=" stroke:none;fill-rule:nonzero;fill:url(#linear1);" d="M 24.382812 19.476562 L 27.902344 20.609375 C 28.003906 20.640625 28.078125 20.730469 28.09375 20.839844 C 28.105469 20.945312 28.058594 21.050781 27.96875 21.105469 L 26.492188 22.050781 L 27.324219 22.882812 C 27.433594 22.992188 27.433594 23.167969 27.324219 23.277344 L 26.203125 24.398438 C 26.09375 24.507812 25.917969 24.507812 25.808594 24.398438 L 24.976562 23.566406 L 24.03125 25.042969 C 23.980469 25.121094 23.894531 25.167969 23.796875 25.167969 C 23.785156 25.167969 23.773438 25.167969 23.761719 25.167969 C 23.65625 25.152344 23.566406 25.078125 23.535156 24.976562 L 23 23.316406 C 21.5 24.726562 18.921875 25.65625 16 25.65625 C 11.375 25.65625 7.617188 23.328125 7.617188 20.464844 L 7.617188 14.042969 L 3.707031 12.296875 L 3.707031 24.597656 L 16 30.007812 L 28.292969 24.597656 L 28.292969 12.296875 L 24.382812 14.042969 Z M 24.382812 19.476562 "/>
<path style=" stroke:none;fill-rule:nonzero;fill:rgb(100%,100%,100%);fill-opacity:1;" d="M 16 22.738281 C 12.65625 22.738281 9.769531 21.515625 8.425781 19.757812 L 8.425781 20.464844 C 8.425781 22.878906 11.824219 24.847656 16 24.847656 C 18.925781 24.847656 21.464844 23.878906 22.726562 22.472656 L 22.253906 20.992188 C 20.71875 22.0625 18.488281 22.738281 16 22.738281 Z M 16 22.738281 "/>
<path style=" stroke:none;fill-rule:nonzero;fill:rgb(100%,100%,100%);fill-opacity:1;" d="M 16 21.929688 C 18.441406 21.929688 20.617188 21.257812 22 20.214844 L 21.625 19.050781 C 21.59375 18.953125 21.621094 18.84375 21.695312 18.769531 C 21.769531 18.695312 21.875 18.671875 21.976562 18.703125 L 23.105469 19.066406 C 23.40625 18.59375 23.574219 18.082031 23.574219 17.546875 L 23.574219 14.402344 L 16 17.78125 L 8.425781 14.402344 L 8.425781 17.546875 C 8.425781 19.964844 11.824219 21.929688 16 21.929688 Z M 16 21.929688 "/>
<path style=" stroke:none;fill-rule:nonzero;fill:rgb(100%,100%,100%);fill-opacity:1;" d="M 16 5.636719 L 3.445312 11.238281 L 16 16.664062 L 28.554688 11.238281 Z M 16 5.636719 "/>
<path style=" stroke:none;fill-rule:nonzero;fill:rgb(16.078431%,39.215686%,66.666667%);fill-opacity:1;" d="M 30.667969 11.238281 L 24.382812 14.042969 L 28.292969 12.296875 Z M 30.667969 11.238281 "/>
<path style=" stroke:none;fill-rule:nonzero;fill:rgb(16.078431%,39.215686%,66.666667%);fill-opacity:1;" d="M 7.617188 14.042969 L 1.332031 11.238281 L 3.707031 12.296875 Z M 7.617188 14.042969 "/>
<path style=" stroke:none;fill-rule:nonzero;fill:rgb(16.078431%,39.215686%,66.666667%);fill-opacity:1;" d="M 23.574219 14.402344 L 16 17.78125 L 8.425781 14.402344 L 16 17.78125 Z M 23.574219 14.402344 "/>
<path style=" stroke:none;fill-rule:nonzero;fill:rgb(16.078431%,39.215686%,66.666667%);fill-opacity:1;" d="M 16 5.636719 L 3.445312 11.238281 L 16 5.636719 L 28.554688 11.238281 Z M 16 5.636719 "/>
<path style=" stroke:none;fill-rule:nonzero;fill:url(#linear2);" d="M 3.707031 10.179688 L 1.332031 11.238281 Z M 3.707031 10.179688 "/>
<path style=" stroke:none;fill-rule:nonzero;fill:url(#linear3);" d="M 30.667969 11.238281 L 28.292969 10.179688 Z M 30.667969 11.238281 "/>
<path style=" stroke:none;fill-rule:nonzero;fill:url(#linear4);" d="M 23.980469 17.546875 L 23.980469 19.347656 L 24.382812 19.476562 L 24.382812 14.042969 L 23.980469 14.222656 Z M 23.980469 17.546875 "/>
<path style=" stroke:none;fill-rule:nonzero;fill:url(#linear5);" d="M 23.980469 17.546875 L 23.980469 19.347656 L 24.382812 19.476562 L 24.382812 14.042969 L 23.980469 14.222656 Z M 23.980469 17.546875 "/>
<path style=" stroke:none;fill-rule:nonzero;fill:url(#linear6);" d="M 16 4.695312 L 28.292969 10.179688 L 16 4.695312 L 3.707031 10.179688 Z M 16 4.695312 "/>
<path style=" stroke:none;fill-rule:nonzero;fill:url(#linear7);" d="M 16 4.695312 L 28.292969 10.179688 L 16 4.695312 L 3.707031 10.179688 Z M 16 4.695312 "/>
<path style=" stroke:none;fill-rule:nonzero;fill:url(#linear8);" d="M 16 25.25 C 11.59375 25.25 8.019531 23.105469 8.019531 20.464844 L 8.019531 14.222656 L 7.617188 14.042969 L 7.617188 20.464844 C 7.617188 23.328125 11.375 25.65625 16 25.65625 C 18.921875 25.65625 21.5 24.726562 23 23.316406 L 22.867188 22.902344 C 21.476562 24.308594 18.921875 25.25 16 25.25 Z M 16 25.25 "/>
<path style=" stroke:none;fill-rule:nonzero;fill:url(#linear9);" d="M 16 25.25 C 11.59375 25.25 8.019531 23.105469 8.019531 20.464844 L 8.019531 14.222656 L 7.617188 14.042969 L 7.617188 20.464844 C 7.617188 23.328125 11.375 25.65625 16 25.65625 C 18.921875 25.65625 21.5 24.726562 23 23.316406 L 22.867188 22.902344 C 21.476562 24.308594 18.921875 25.25 16 25.25 Z M 16 25.25 "/>
<path style=" stroke:none;fill-rule:nonzero;fill:rgb(100%,100%,100%);fill-opacity:1;" d="M 8.019531 20.464844 C 8.019531 23.105469 11.59375 25.25 16 25.25 C 18.921875 25.25 21.476562 24.308594 22.867188 22.902344 L 22.726562 22.472656 C 21.464844 23.878906 18.925781 24.847656 16 24.847656 C 11.824219 24.847656 8.425781 22.878906 8.425781 20.464844 L 8.425781 19.757812 C 9.769531 21.515625 12.65625 22.738281 16 22.738281 C 18.488281 22.738281 20.71875 22.0625 22.253906 20.992188 L 22 20.214844 C 20.617188 21.257812 18.441406 21.929688 16 21.929688 C 11.824219 21.929688 8.425781 19.964844 8.425781 17.546875 L 8.425781 14.402344 L 8.019531 14.222656 Z M 8.019531 20.464844 "/>
<path style=" stroke:none;fill-rule:nonzero;fill:url(#linear10);" d="M 8.019531 20.464844 C 8.019531 23.105469 11.59375 25.25 16 25.25 C 18.921875 25.25 21.476562 24.308594 22.867188 22.902344 L 22.726562 22.472656 C 21.464844 23.878906 18.925781 24.847656 16 24.847656 C 11.824219 24.847656 8.425781 22.878906 8.425781 20.464844 L 8.425781 19.757812 C 9.769531 21.515625 12.65625 22.738281 16 22.738281 C 18.488281 22.738281 20.71875 22.0625 22.253906 20.992188 L 22 20.214844 C 20.617188 21.257812 18.441406 21.929688 16 21.929688 C 11.824219 21.929688 8.425781 19.964844 8.425781 17.546875 L 8.425781 14.402344 L 8.019531 14.222656 Z M 8.019531 20.464844 "/>
<path style=" stroke:none;fill-rule:nonzero;fill:rgb(100%,100%,100%);fill-opacity:1;" d="M 23.105469 19.066406 L 23.980469 19.347656 L 23.980469 14.222656 L 23.574219 14.402344 L 23.574219 17.546875 C 23.574219 18.082031 23.40625 18.59375 23.105469 19.066406 Z M 23.105469 19.066406 "/>
<path style=" stroke:none;fill-rule:nonzero;fill:url(#linear11);" d="M 23.105469 19.066406 L 23.980469 19.347656 L 23.980469 14.222656 L 23.574219 14.402344 L 23.574219 17.546875 C 23.574219 18.082031 23.40625 18.59375 23.105469 19.066406 Z M 23.105469 19.066406 "/>
<path style=" stroke:none;fill-rule:nonzero;fill:rgb(100%,100%,100%);fill-opacity:1;" d="M 16 16.664062 L 3.445312 11.238281 L 16 16.839844 L 28.554688 11.238281 Z M 16 16.664062 "/>
<path style=" stroke:none;fill-rule:nonzero;fill:url(#linear12);" d="M 16 16.664062 L 3.445312 11.238281 L 16 16.839844 L 28.554688 11.238281 Z M 16 16.664062 "/>
<path style=" stroke:none;fill-rule:nonzero;fill:rgb(16.078431%,39.215686%,66.666667%);fill-opacity:1;" d="M 7.617188 14.042969 L 8.019531 14.222656 L 8.425781 14.402344 L 16 17.78125 L 23.574219 14.402344 L 23.980469 14.222656 L 24.382812 14.042969 L 30.667969 11.238281 L 28.292969 10.179688 L 16 4.695312 L 3.707031 10.179688 L 1.332031 11.238281 Z M 28.554688 11.238281 L 16 16.839844 L 3.445312 11.238281 L 16 5.636719 Z M 28.554688 11.238281 "/>
<path style=" stroke:none;fill-rule:nonzero;fill:url(#linear13);" d="M 7.617188 14.042969 L 8.019531 14.222656 L 8.425781 14.402344 L 16 17.78125 L 23.574219 14.402344 L 23.980469 14.222656 L 24.382812 14.042969 L 30.667969 11.238281 L 28.292969 10.179688 L 16 4.695312 L 3.707031 10.179688 L 1.332031 11.238281 Z M 28.554688 11.238281 L 16 16.839844 L 3.445312 11.238281 L 16 5.636719 Z M 28.554688 11.238281 "/>
<path style=" stroke:none;fill-rule:nonzero;fill:rgb(100%,100%,100%);fill-opacity:1;" d="M 22.320312 19.394531 L 23.882812 24.246094 L 24.695312 22.976562 C 24.742188 22.90625 24.816406 22.863281 24.898438 22.851562 C 24.980469 22.84375 25.066406 22.871094 25.125 22.933594 L 26.003906 23.8125 L 26.738281 23.078125 L 25.859375 22.199219 C 25.796875 22.140625 25.769531 22.058594 25.777344 21.972656 C 25.785156 21.890625 25.832031 21.816406 25.902344 21.769531 L 27.171875 20.957031 Z M 22.320312 19.394531 "/>
<path style=" stroke:none;fill-rule:nonzero;fill:url(#linear14);" d="M 27.816406 20.875 L 26.054688 22.003906 L 27.128906 23.078125 L 26.003906 24.203125 L 24.929688 23.128906 L 23.796875 24.890625 L 23.222656 23.097656 C 23.148438 23.171875 23.078125 23.246094 23 23.316406 L 23.535156 24.976562 C 23.566406 25.078125 23.65625 25.152344 23.761719 25.167969 C 23.773438 25.167969 23.785156 25.167969 23.796875 25.167969 C 23.894531 25.167969 23.980469 25.121094 24.03125 25.042969 L 24.976562 23.566406 L 25.808594 24.398438 C 25.917969 24.507812 26.09375 24.507812 26.203125 24.398438 L 27.324219 23.277344 C 27.433594 23.167969 27.433594 22.992188 27.324219 22.882812 L 26.492188 22.050781 L 27.96875 21.105469 C 28.058594 21.050781 28.105469 20.945312 28.09375 20.839844 C 28.078125 20.730469 28.003906 20.640625 27.902344 20.609375 L 24.382812 19.476562 L 24.382812 19.769531 Z M 27.816406 20.875 "/>
<path style=" stroke:none;fill-rule:nonzero;fill:url(#linear15);" d="M 27.816406 20.875 L 26.054688 22.003906 L 27.128906 23.078125 L 26.003906 24.203125 L 24.929688 23.128906 L 23.796875 24.890625 L 23.222656 23.097656 C 23.148438 23.171875 23.078125 23.246094 23 23.316406 L 23.535156 24.976562 C 23.566406 25.078125 23.65625 25.152344 23.761719 25.167969 C 23.773438 25.167969 23.785156 25.167969 23.796875 25.167969 C 23.894531 25.167969 23.980469 25.121094 24.03125 25.042969 L 24.976562 23.566406 L 25.808594 24.398438 C 25.917969 24.507812 26.09375 24.507812 26.203125 24.398438 L 27.324219 23.277344 C 27.433594 23.167969 27.433594 22.992188 27.324219 22.882812 L 26.492188 22.050781 L 27.96875 21.105469 C 28.058594 21.050781 28.105469 20.945312 28.09375 20.839844 C 28.078125 20.730469 28.003906 20.640625 27.902344 20.609375 L 24.382812 19.476562 L 24.382812 19.769531 Z M 27.816406 20.875 "/>
<path style=" stroke:none;fill-rule:nonzero;fill:rgb(100%,100%,100%);fill-opacity:1;" d="M 22.488281 20.820312 C 22.410156 20.878906 22.332031 20.9375 22.253906 20.992188 L 22.726562 22.472656 C 22.800781 22.390625 22.871094 22.304688 22.9375 22.21875 Z M 22.488281 20.820312 "/>
<path style=" stroke:none;fill-rule:nonzero;fill:url(#linear16);" d="M 22.488281 20.820312 C 22.410156 20.878906 22.332031 20.9375 22.253906 20.992188 L 22.726562 22.472656 C 22.800781 22.390625 22.871094 22.304688 22.9375 22.21875 Z M 22.488281 20.820312 "/>
<path style=" stroke:none;fill-rule:nonzero;fill:rgb(100%,100%,100%);fill-opacity:1;" d="M 21.890625 18.964844 L 22.9375 19.300781 C 22.996094 19.222656 23.054688 19.144531 23.105469 19.066406 L 21.976562 18.703125 C 21.875 18.671875 21.769531 18.695312 21.695312 18.769531 C 21.621094 18.84375 21.59375 18.953125 21.625 19.050781 L 22 20.214844 C 22.082031 20.15625 22.160156 20.09375 22.234375 20.03125 Z M 21.890625 18.964844 "/>
<path style=" stroke:none;fill-rule:nonzero;fill:url(#linear17);" d="M 21.890625 18.964844 L 22.9375 19.300781 C 22.996094 19.222656 23.054688 19.144531 23.105469 19.066406 L 21.976562 18.703125 C 21.875 18.671875 21.769531 18.695312 21.695312 18.769531 C 21.621094 18.84375 21.59375 18.953125 21.625 19.050781 L 22 20.214844 C 22.082031 20.15625 22.160156 20.09375 22.234375 20.03125 Z M 21.890625 18.964844 "/>
<path style=" stroke:none;fill-rule:nonzero;fill:url(#linear18);" d="M 23.980469 19.636719 L 24.382812 19.769531 L 24.382812 19.476562 L 23.980469 19.347656 Z M 23.980469 19.636719 "/>
<path style=" stroke:none;fill-rule:nonzero;fill:url(#linear19);" d="M 23.980469 19.636719 L 24.382812 19.769531 L 24.382812 19.476562 L 23.980469 19.347656 Z M 23.980469 19.636719 "/>
<path style=" stroke:none;fill-rule:nonzero;fill:url(#linear20);" d="M 23.980469 19.636719 L 24.382812 19.769531 L 24.382812 19.476562 L 23.980469 19.347656 Z M 23.980469 19.636719 "/>
<path style=" stroke:none;fill-rule:nonzero;fill:url(#linear21);" d="M 23.222656 23.097656 L 23.082031 22.667969 C 23.015625 22.746094 22.941406 22.824219 22.867188 22.902344 L 23 23.316406 C 23.078125 23.246094 23.148438 23.171875 23.222656 23.097656 Z M 23.222656 23.097656 "/>
<path style=" stroke:none;fill-rule:nonzero;fill:url(#linear22);" d="M 23.222656 23.097656 L 23.082031 22.667969 C 23.015625 22.746094 22.941406 22.824219 22.867188 22.902344 L 23 23.316406 C 23.078125 23.246094 23.148438 23.171875 23.222656 23.097656 Z M 23.222656 23.097656 "/>
<path style=" stroke:none;fill-rule:nonzero;fill:url(#linear23);" d="M 23.222656 23.097656 L 23.082031 22.667969 C 23.015625 22.746094 22.941406 22.824219 22.867188 22.902344 L 23 23.316406 C 23.078125 23.246094 23.148438 23.171875 23.222656 23.097656 Z M 23.222656 23.097656 "/>
<path style=" stroke:none;fill-rule:nonzero;fill:rgb(100%,100%,100%);fill-opacity:1;" d="M 22.726562 22.472656 L 22.867188 22.902344 C 22.941406 22.824219 23.015625 22.746094 23.082031 22.667969 L 22.9375 22.21875 C 22.871094 22.304688 22.800781 22.390625 22.726562 22.472656 Z M 22.726562 22.472656 "/>
<path style=" stroke:none;fill-rule:nonzero;fill:url(#linear24);" d="M 22.726562 22.472656 L 22.867188 22.902344 C 22.941406 22.824219 23.015625 22.746094 23.082031 22.667969 L 22.9375 22.21875 C 22.871094 22.304688 22.800781 22.390625 22.726562 22.472656 Z M 22.726562 22.472656 "/>
<path style=" stroke:none;fill-rule:nonzero;fill:url(#linear25);" d="M 22.726562 22.472656 L 22.867188 22.902344 C 22.941406 22.824219 23.015625 22.746094 23.082031 22.667969 L 22.9375 22.21875 C 22.871094 22.304688 22.800781 22.390625 22.726562 22.472656 Z M 22.726562 22.472656 "/>
<path style=" stroke:none;fill-rule:nonzero;fill:rgb(100%,100%,100%);fill-opacity:1;" d="M 22.234375 20.03125 C 22.160156 20.09375 22.082031 20.15625 22 20.214844 L 22.253906 20.992188 C 22.332031 20.9375 22.410156 20.878906 22.488281 20.820312 Z M 22.234375 20.03125 "/>
<path style=" stroke:none;fill-rule:nonzero;fill:url(#linear26);" d="M 22.234375 20.03125 C 22.160156 20.09375 22.082031 20.15625 22 20.214844 L 22.253906 20.992188 C 22.332031 20.9375 22.410156 20.878906 22.488281 20.820312 Z M 22.234375 20.03125 "/>
<path style=" stroke:none;fill-rule:nonzero;fill:url(#linear27);" d="M 22.234375 20.03125 C 22.160156 20.09375 22.082031 20.15625 22 20.214844 L 22.253906 20.992188 C 22.332031 20.9375 22.410156 20.878906 22.488281 20.820312 Z M 22.234375 20.03125 "/>
<path style=" stroke:none;fill-rule:nonzero;fill:rgb(100%,100%,100%);fill-opacity:1;" d="M 23.105469 19.066406 C 23.054688 19.144531 22.996094 19.222656 22.9375 19.300781 L 23.980469 19.636719 L 23.980469 19.347656 Z M 23.105469 19.066406 "/>
<path style=" stroke:none;fill-rule:nonzero;fill:url(#linear28);" d="M 23.105469 19.066406 C 23.054688 19.144531 22.996094 19.222656 22.9375 19.300781 L 23.980469 19.636719 L 23.980469 19.347656 Z M 23.105469 19.066406 "/>
<path style=" stroke:none;fill-rule:nonzero;fill:url(#linear29);" d="M 23.105469 19.066406 C 23.054688 19.144531 22.996094 19.222656 22.9375 19.300781 L 23.980469 19.636719 L 23.980469 19.347656 Z M 23.105469 19.066406 "/>
<path style=" stroke:none;fill-rule:nonzero;fill:rgb(100%,100%,100%);fill-opacity:1;" d="M 22.9375 19.300781 L 21.890625 18.964844 L 22.234375 20.03125 L 22.488281 20.820312 L 22.9375 22.21875 L 23.082031 22.667969 L 23.222656 23.097656 L 23.796875 24.890625 L 24.929688 23.128906 L 26.003906 24.203125 L 27.128906 23.078125 L 26.054688 22.003906 L 27.816406 20.875 L 24.382812 19.769531 L 23.980469 19.636719 Z M 27.171875 20.957031 L 25.902344 21.769531 C 25.832031 21.816406 25.785156 21.890625 25.777344 21.972656 C 25.769531 22.058594 25.796875 22.140625 25.859375 22.199219 L 26.738281 23.078125 L 26.003906 23.8125 L 25.125 22.933594 C 25.066406 22.871094 24.980469 22.84375 24.898438 22.851562 C 24.816406 22.863281 24.742188 22.90625 24.695312 22.976562 L 23.882812 24.246094 L 22.320312 19.394531 Z M 27.171875 20.957031 "/>
<path style=" stroke:none;fill-rule:nonzero;fill:url(#linear30);" d="M 22.9375 19.300781 L 21.890625 18.964844 L 22.234375 20.03125 L 22.488281 20.820312 L 22.9375 22.21875 L 23.082031 22.667969 L 23.222656 23.097656 L 23.796875 24.890625 L 24.929688 23.128906 L 26.003906 24.203125 L 27.128906 23.078125 L 26.054688 22.003906 L 27.816406 20.875 L 24.382812 19.769531 L 23.980469 19.636719 Z M 27.171875 20.957031 L 25.902344 21.769531 C 25.832031 21.816406 25.785156 21.890625 25.777344 21.972656 C 25.769531 22.058594 25.796875 22.140625 25.859375 22.199219 L 26.738281 23.078125 L 26.003906 23.8125 L 25.125 22.933594 C 25.066406 22.871094 24.980469 22.84375 24.898438 22.851562 C 24.816406 22.863281 24.742188 22.90625 24.695312 22.976562 L 23.882812 24.246094 L 22.320312 19.394531 Z M 27.171875 20.957031 "/>
</g>
</svg>
